<svg xmlns="http://www.w3.org/2000/svg" xmlns:xlink="http://www.w3.org/1999/xlink" width="1439px" height="398px" viewBox="0 0 1439 398"><title>onac</title><defs><polygon id="path-1" points="0.234111997 0.408899761 178 0.408899761 178 194.412991 0.234111997 194.412991"></polygon><polygon id="path-3" points="0 0 397.072186 0 397.072186 333.603961 0 333.603961"></polygon></defs><g id="Page-1" stroke="none" stroke-width="1" fill="none" fill-rule="evenodd"><g id="onac"><path d="M633.877305,198.990484 C633.877305,165.587162 606.274123,138.099441 572.5,138.099441 C538.744854,138.099441 511.407361,165.587162 511.407361,198.990484 C511.407361,232.679278 538.744854,259.897387 572.5,259.897387 C606.274123,259.897387 633.877305,232.679278 633.877305,198.990484 M673,198.990484 C673,252.608352 628.244067,296 572.5,296 C517.024784,296 472,252.608352 472,198.990484 C472,145.375789 517.024784,102 572.5,102 C628.244067,102 673,145.375789 673,198.990484" id="Fill-100" fill="#2E20FF"></path><polygon id="Fill-102" fill="#2E20FF" points="929 103 929 293 910.329895 293 798.104759 173.341465 798.104759 293 760 293 760 103 778.654373 103 890.612075 222.658535 890.612075 103"></polygon><path d="M1076.89081,222.392042 L1133.85664,222.392042 L1105.23956,159.594867 L1076.89081,222.392042 Z M1147.50066,254.460034 L1063.24679,254.460034 L1046.39539,293 L1006,293 L1095.89205,103 L1114.87434,103 L1205,293 L1164.60461,293 L1147.50066,254.460034 Z" id="Fill-104" fill="#2E20FF"></path><g id="Group-108" transform="translate(1261.000000, 101.000000)"><mask id="mask-2" fill="white"><use xlink:href="#path-1"></use></mask><g id="Clip-107"></g><path d="M148.231795,133.059023 L178.000316,158.362665 C159.506935,180.422981 131.621296,194.412991 99.9667279,194.412991 C45.0308791,194.412991 0.234111997,151.084186 0.234111997,97.5439725 C0.234111997,44.0069262 45.0308791,0.408899761 99.9667279,0.408899761 C131.621296,0.408899761 159.506935,14.6839673 178.000316,36.7442837 L148.231795,62.0320892 C137.507279,46.7023073 119.830341,37.0103377 99.9667279,37.0103377 C66.9957251,37.0103377 39.9265286,61.2275924 39.9265286,97.5439725 C39.9265286,133.344081 66.9957251,158.080774 99.9667279,158.080774 C119.830341,158.080774 137.507279,148.404641 148.231795,133.059023" id="Fill-106" fill="#2E20FF" mask="url(#mask-2)"></path></g><g id="Group-193"><mask id="mask-4" fill="white"><use xlink:href="#path-3"></use></mask><g id="Clip-192"></g><path d="M198.534191,-0.00506225639 C88.8988207,-0.00506225639 -0.00380359202,88.9514381 -0.00380359202,198.688501 C-0.00380359202,199.172579 0.0310626682,199.640838 0.0310626682,200.124916 C0.0627592684,205.443449 0.34802867,210.708196 0.782272093,215.925484 C7.9488734,282.095503 63.9092211,333.603961 131.933295,333.603961 C155.835701,333.603961 178.238858,327.200207 197.583293,316.066407 C158.323884,293.029976 131.933295,250.396286 131.933295,201.564495 C131.933295,152.729541 158.323884,110.083195 197.583293,87.0467641 C217.225676,75.5427865 240.063077,68.9080667 264.485307,68.9080667 C337.352621,68.9080667 396.46995,127.753633 397.021471,200.526733 C397.021471,199.90977 397.072186,199.308627 397.072186,198.688501 C397.072186,88.9514381 308.169562,-0.00506225639 198.534191,-0.00506225639" id="Fill-191" fill="#2E20FF" mask="url(#mask-4)"></path></g><path d="M263.87833,69 C239.532477,69 216.766499,75.6298187 197.185545,87.1686189 C236.650788,109.992689 263.262179,152.794951 263.262179,201.875258 C263.262179,250.939719 236.650788,293.741981 197.185545,316.566051 C177.901608,327.718217 155.568515,334.132535 131.721902,334.132535 C63.9295256,334.132535 8.14418846,282.539108 1,216.259936 C9.70826334,318.090402 94.6201504,398 198.133469,398 C301.728942,398 386.707183,317.922438 395.285897,215.958869 C395.684025,210.970659 395.949444,205.928574 396,200.838952 C395.434405,127.945807 336.50196,69 263.87833,69" id="Fill-194" fill="#44F0B9"></path></g></g></svg>